<svg width="16" height="16" viewBox="0 0 16 16" fill="none" xmlns="http://www.w3.org/2000/svg">
<path d="M11.6667 1.278C10.916 1.28968 10.1817 1.49924 9.5379 1.88551C8.8941 2.27179 8.36363 2.82111 8.00005 3.478C7.63648 2.82111 7.10601 2.27179 6.46221 1.88551C5.81841 1.49924 5.08409 1.28968 4.33339 1.278C3.13668 1.32999 2.00919 1.8535 1.19724 2.73415C0.385293 3.61481 -0.0451135 4.78102 5.35741e-05 5.978C5.35741e-05 9.00933 3.19072 12.32 5.86672 14.5647C6.4642 15.0668 7.21962 15.342 8.00005 15.342C8.78048 15.342 9.53591 15.0668 10.1334 14.5647C12.8094 12.32 16.0001 9.00933 16.0001 5.978C16.0452 4.78102 15.6148 3.61481 14.8029 2.73415C13.9909 1.8535 12.8634 1.32999 11.6667 1.278Z" fill="#E26D5C"/>
</svg>
