<svg width="16" height="15" viewBox="0 0 16 15" fill="none" xmlns="http://www.w3.org/2000/svg">
<g filter="url(#filter0_d_4358_979)">
<path d="M11.6667 0.278015C10.916 0.289692 10.1817 0.499251 9.5379 0.885529C8.8941 1.27181 8.36363 1.82113 8.00005 2.47802C7.63648 1.82113 7.10601 1.27181 6.46221 0.885529C5.81841 0.499251 5.08409 0.289692 4.33339 0.278015C3.13668 0.330009 2.00919 0.853518 1.19724 1.73417C0.385293 2.61482 -0.0451135 3.78103 5.35741e-05 4.97802C5.35741e-05 8.00935 3.19072 11.32 5.86672 13.5647C6.4642 14.0668 7.21962 14.342 8.00005 14.342C8.78048 14.342 9.53591 14.0668 10.1334 13.5647C12.8094 11.32 16.0001 8.00935 16.0001 4.97802C16.0452 3.78103 15.6148 2.61482 14.8029 1.73417C13.9909 0.853518 12.8634 0.330009 11.6667 0.278015ZM9.27672 12.5447C8.91938 12.8456 8.46722 13.0106 8.00005 13.0106C7.53289 13.0106 7.08073 12.8456 6.72339 12.5447C3.29805 9.67068 1.33339 6.91335 1.33339 4.97802C1.28781 4.13449 1.57763 3.30717 2.13963 2.67648C2.70163 2.0458 3.49021 1.66292 4.33339 1.61135C5.17656 1.66292 5.96515 2.0458 6.52714 2.67648C7.08914 3.30717 7.37896 4.13449 7.33339 4.97802C7.33339 5.15483 7.40363 5.3244 7.52865 5.44942C7.65367 5.57444 7.82324 5.64468 8.00005 5.64468C8.17686 5.64468 8.34643 5.57444 8.47146 5.44942C8.59648 5.3244 8.66672 5.15483 8.66672 4.97802C8.62115 4.13449 8.91096 3.30717 9.47296 2.67648C10.035 2.0458 10.8235 1.66292 11.6667 1.61135C12.5099 1.66292 13.2985 2.0458 13.8605 2.67648C14.4225 3.30717 14.7123 4.13449 14.6667 4.97802C14.6667 6.91335 12.7021 9.67068 9.27672 12.542V12.5447Z" fill="#E26D5C"/>
</g>
<defs>
<filter id="filter0_d_4358_979" x="-4.00317" y="0.278015" width="24.0065" height="22.064" filterUnits="userSpaceOnUse" color-interpolation-filters="sRGB">
<feFlood flood-opacity="0" result="BackgroundImageFix"/>
<feColorMatrix in="SourceAlpha" type="matrix" values="0 0 0 0 0 0 0 0 0 0 0 0 0 0 0 0 0 0 127 0" result="hardAlpha"/>
<feOffset dy="4"/>
<feGaussianBlur stdDeviation="2"/>
<feComposite in2="hardAlpha" operator="out"/>
<feColorMatrix type="matrix" values="0 0 0 0 0 0 0 0 0 0 0 0 0 0 0 0 0 0 0.25 0"/>
<feBlend mode="normal" in2="BackgroundImageFix" result="effect1_dropShadow_4358_979"/>
<feBlend mode="normal" in="SourceGraphic" in2="effect1_dropShadow_4358_979" result="shape"/>
</filter>
</defs>
</svg>
