<svg width="100" height="138" viewBox="0 0 100 138" fill="none" xmlns="http://www.w3.org/2000/svg">
<path d="M89.996 49.4263C90.3129 71.5154 72.663 89.6791 50.5739 89.996C28.4847 90.3129 10.3211 72.663 10.0042 50.5739C9.68732 28.4847 27.3372 10.3211 49.4263 10.0042C71.5154 9.68732 89.6791 27.3372 89.996 49.4263Z" fill="#E26D5C"/>
<path d="M50.9118 127.253L16.909 72.0177L83.9107 71.4122L50.9118 127.253Z" fill="#E26D5C"/>
<path d="M63 47.5C63 54.4036 57.4036 60 50.5 60C43.5964 60 38 54.4036 38 47.5C38 40.5964 43.5964 35 50.5 35C57.4036 35 63 40.5964 63 47.5Z" fill="#FBDFA8"/>
</svg>
