<?xml version="1.0" encoding="UTF-8" standalone="no"?>
<svg
   version="1.1"
   width="512px"
   height="512px"
   style="shape-rendering:geometricPrecision; text-rendering:geometricPrecision; image-rendering:optimizeQuality; fill-rule:evenodd; clip-rule:evenodd"
   id="svg34"
   sodipodi:docname="5e4015b4ddf4f06f777183c344b8151b.svg"
   xmlns:inkscape="http://www.inkscape.org/namespaces/inkscape"
   xmlns:sodipodi="http://sodipodi.sourceforge.net/DTD/sodipodi-0.dtd"
   xmlns="http://www.w3.org/2000/svg"
   xmlns:svg="http://www.w3.org/2000/svg">
  <defs
     id="defs38" />
  <sodipodi:namedview
     id="namedview36"
     pagecolor="#ffffff"
     bordercolor="#666666"
     borderopacity="1.0"
     inkscape:pageshadow="2"
     inkscape:pageopacity="0.0"
     inkscape:pagecheckerboard="0" />
  <g
     id="g4">
    <path
       style="opacity:0.961"
       fill="#6a6b6d"
       d="M 357.5,326.5 C 354.473,324.471 352.14,321.804 350.5,318.5C 413.051,250.37 420.885,176.37 374,96.5C 342.909,52.8609 300.409,29.3609 246.5,26C 210.117,23.7956 176.784,32.7956 146.5,53C 89.1865,91.7951 62.3532,145.962 66,215.5C 71.0715,252.087 85.4049,284.421 109,312.5C 136.374,342.971 170.54,360.138 211.5,364C 245.047,368.184 277.047,363.018 307.5,348.5C 338.926,391.666 371.093,434.333 404,476.5C 410.092,484.272 417.592,490.106 426.5,494C 444.649,496.995 454.982,489.495 457.5,471.5C 459.698,490.662 451.031,501.328 431.5,503.5C 421.908,502.37 413.574,498.537 406.5,492C 370.869,450.377 337.536,407.044 306.5,362C 263.593,377.684 219.926,379.684 175.5,368C 138.817,356.587 109.65,335.087 88,303.5C 39.4132,226.534 42.7466,151.868 98,79.5C 154.524,19.0762 222.357,1.24285 301.5,26C 355.439,47.2755 390.606,85.7755 407,141.5C 425.62,212.693 409.12,274.36 357.5,326.5 Z"
       id="path2" />
  </g>
  <g
     id="g8">
    <path
       style="opacity:0.997"
       fill="#2f2f2f"
       d="M 357.5,326.5 C 387.783,367.956 418.283,409.289 449,450.5C 453.514,456.856 456.348,463.856 457.5,471.5C 454.982,489.495 444.649,496.995 426.5,494C 417.592,490.106 410.092,484.272 404,476.5C 371.093,434.333 338.926,391.666 307.5,348.5C 277.047,363.018 245.047,368.184 211.5,364C 170.54,360.138 136.374,342.971 109,312.5C 85.4049,284.421 71.0715,252.087 66,215.5C 62.3532,145.962 89.1865,91.7951 146.5,53C 176.784,32.7956 210.117,23.7956 246.5,26C 300.409,29.3609 342.909,52.8609 374,96.5C 420.885,176.37 413.051,250.37 350.5,318.5C 352.14,321.804 354.473,324.471 357.5,326.5 Z M 401.5,440.5 C 404.016,440.755 406.35,441.589 408.5,443C 415.651,449.158 421.484,456.325 426,464.5C 426.495,466.473 426.662,468.473 426.5,470.5C 416.019,462.347 407.686,452.347 401.5,440.5 Z"
       id="path6" />
  </g>
  <g
     id="g12">
    <path
       style="opacity:1"
       fill="#6b6c6e"
       d="M 221.5,50.5 C 293.267,48.7806 342.267,81.2806 368.5,148C 382.438,197.304 374.605,242.804 345,284.5C 329.822,304.006 310.489,317.672 287,325.5C 248.224,339.207 209.724,338.707 171.5,324C 136.368,306.86 112.534,279.694 100,242.5C 82.7656,183.992 95.2656,132.825 137.5,89C 161.677,67.7435 189.677,54.9102 221.5,50.5 Z"
       id="path10" />
  </g>
  <g
     id="g16">
    <path
       style="opacity:1"
       fill="#fefefe"
       d="M 322.5,115.5 C 339.481,151.541 342.147,188.708 330.5,227C 321.843,255.684 305.176,278.351 280.5,295C 266.699,302.225 252.032,304.558 236.5,302C 231.262,300.357 225.929,299.024 220.5,298C 205.169,298.106 189.836,298.106 174.5,298C 165.019,296.423 156.353,292.923 148.5,287.5C 118.289,259.511 114.456,228.177 137,193.5C 147.288,179.943 158.288,166.943 170,154.5C 174.667,141.167 179.333,127.833 184,114.5C 200.892,78.4699 229.059,64.3033 268.5,72C 292.898,78.682 310.898,93.182 322.5,115.5 Z"
       id="path14" />
  </g>
  <g
     id="g20">
    <path
       style="opacity:1"
       fill="#565a5d"
       d="M 148.5,287.5 C 156.353,292.923 165.019,296.423 174.5,298C 189.836,298.106 205.169,298.106 220.5,298C 225.929,299.024 231.262,300.357 236.5,302C 252.032,304.558 266.699,302.225 280.5,295C 305.176,278.351 321.843,255.684 330.5,227C 342.147,188.708 339.481,151.541 322.5,115.5C 323.329,114.668 324.162,115.001 325,116.5C 343.24,145.572 350.24,177.239 346,211.5C 340.037,252.297 319.87,283.797 285.5,306C 270.41,312.155 254.743,314.155 238.5,312C 230.416,310.312 222.416,308.312 214.5,306C 203.833,305.667 193.167,305.333 182.5,305C 168.832,303.332 157.166,297.665 147.5,288C 147.728,287.601 148.062,287.435 148.5,287.5 Z"
       id="path18" />
  </g>
  <g
     id="g24">
    <path
       style="opacity:1"
       fill="#ff8e03"
       d="M 232.5,138.5 C 257.106,135.889 275.939,144.889 289,165.5C 300.9,191.866 296.066,214.7 274.5,234C 247.61,249.211 223.11,246.044 201,224.5C 181.11,195.094 184.943,169.26 212.5,147C 218.92,143.282 225.586,140.449 232.5,138.5 Z"
       id="path22" />
  </g>
  <g
     id="g28">
    <path
       style="opacity:1"
       fill="#ffb401"
       d="M 232.5,150.5 C 239.042,149.989 245.376,150.822 251.5,153C 255.699,158.281 255.366,163.281 250.5,168C 243.914,171.207 237.747,175.041 232,179.5C 228.059,187.925 224.726,196.592 222,205.5C 215.667,212.167 209.333,212.167 203,205.5C 200.036,197.998 199.702,190.331 202,182.5C 207.288,167.049 217.454,156.382 232.5,150.5 Z"
       id="path26" />
  </g>
  <g
     id="g32">
    <path
       style="opacity:0.956"
       fill="#6a6b6d"
       d="M 426.5,470.5 C 426.662,468.473 426.495,466.473 426,464.5C 421.484,456.325 415.651,449.158 408.5,443C 406.35,441.589 404.016,440.755 401.5,440.5C 399.424,435.519 401.09,432.186 406.5,430.5C 412.301,432.789 417.134,436.456 421,441.5C 426.989,448.14 431.989,455.473 436,463.5C 437.925,469.016 436.091,472.349 430.5,473.5C 428.583,473.246 427.249,472.246 426.5,470.5 Z"
       id="path30" />
  </g>
</svg>
