<svg width="16" height="16" viewBox="0 0 16 16" fill="none" xmlns="http://www.w3.org/2000/svg">
<g clip-path="url(#clip0_4427_1306)">
<path d="M0.884673 8.26667L3.25801 10L2.35667 12.7913C2.21101 13.2243 2.20917 13.6927 2.35141 14.1267C2.49366 14.5608 2.77237 14.9373 3.14601 15.2C3.51324 15.4712 3.95827 15.6165 4.41478 15.6142C4.87128 15.6119 5.31483 15.4622 5.67934 15.1873L8.00001 13.4793L10.3213 15.1853C10.6879 15.455 11.1305 15.6014 11.5856 15.6036C12.0406 15.6059 12.4847 15.4637 12.8538 15.1977C13.223 14.9316 13.4983 14.5554 13.6402 14.123C13.7821 13.6906 13.7832 13.2244 13.6433 12.7913L12.742 10L15.1153 8.26667C15.4814 7.99901 15.7536 7.6225 15.8929 7.19093C16.0322 6.75936 16.0316 6.2948 15.8911 5.8636C15.7506 5.4324 15.4775 5.05662 15.1107 4.78994C14.7439 4.52326 14.3022 4.37932 13.8487 4.37867H10.9333L10.0487 1.62134C9.90955 1.18731 9.63618 0.808681 9.26799 0.540049C8.89979 0.271416 8.45578 0.126663 8.00001 0.126663C7.54423 0.126663 7.10023 0.271416 6.73203 0.540049C6.36383 0.808681 6.09046 1.18731 5.95134 1.62134L5.06667 4.37867H2.15401C1.7005 4.37932 1.2588 4.52326 0.891993 4.78994C0.525185 5.05662 0.252034 5.4324 0.111554 5.8636C-0.0289254 6.2948 -0.0295472 6.75936 0.109778 7.19093C0.249102 7.6225 0.521247 7.99901 0.88734 8.26667H0.884673Z" fill="#E26D5C"/>
</g>
<defs>
<clipPath id="clip0_4427_1306">
<rect width="16" height="16" fill="white"/>
</clipPath>
</defs>
</svg>
