<svg xmlns="http://www.w3.org/2000/svg" width="512" height="512" viewBox="0 0 512 512" version="1.1"><path d="M 242.500 71.101 C 218.201 72.926, 199.782 85.470, 187.920 108.270 C 185.646 112.641, 181.394 123.524, 178.471 132.453 C 175.548 141.382, 172.221 150.671, 171.078 153.094 C 169.934 155.517, 164.240 162.675, 158.424 169 C 134.047 195.510, 124.672 212.438, 123.346 232.340 C 121.720 256.738, 136.916 282.962, 158.594 293.172 C 169.530 298.323, 176.949 299.294, 199.772 298.560 C 219.115 297.938, 220.512 298.022, 230.272 300.384 C 251.301 305.472, 261.675 304.819, 276.500 297.472 C 296.824 287.400, 316.306 264.900, 326.572 239.645 C 348.244 186.327, 338.572 123.957, 303.551 91.197 C 287.194 75.895, 267.031 69.258, 242.500 71.101 M 232.131 140.541 C 208.517 145.665, 190 167.208, 190 189.556 C 190 198.423, 191.614 205.278, 195.755 214 C 204.266 231.929, 222.876 243, 244.500 243 C 259.345 243, 270.390 238.606, 280.024 228.868 C 290.131 218.652, 295.341 205.642, 295.232 190.893 C 295.052 166.466, 277.782 145.615, 253.500 140.507 C 245.015 138.722, 240.479 138.730, 232.131 140.541 M 235.132 151.078 C 219.292 154.191, 203.901 171.674, 200.864 190.002 C 198.472 204.442, 206.114 214.170, 217.050 210.606 C 221.328 209.212, 223.964 204.705, 227.937 191.990 C 231.317 181.175, 233.660 178.308, 243.500 172.946 C 252.651 167.960, 255 165.415, 255 160.487 C 255 155.528, 252.463 152.727, 246.500 151.101 C 242 149.875, 241.260 149.873, 235.132 151.078" stroke="none" fill="#fbfbfb" fill-rule="evenodd"/><path d="M 221.313 16.094 C 186.873 19.165, 151.536 34.399, 120.378 59.606 C 98.031 77.685, 81.297 100.782, 69.160 130.301 C 48.537 180.460, 49.614 226.455, 72.545 274.863 C 94.325 320.841, 128.765 352.677, 172.121 366.911 C 192.824 373.708, 214.441 376.524, 239.810 375.730 C 262.862 375.008, 280.923 371.483, 299.436 364.092 L 306.396 361.314 323.236 384.770 C 359.786 435.681, 393.154 478.192, 406.553 490.920 C 416.316 500.195, 422.091 502.977, 431.601 502.990 C 443.103 503.006, 449.694 499.705, 455.063 491.239 C 460.339 482.921, 459.956 471.330, 454.015 459.500 C 452.358 456.200, 429.883 424.925, 404.070 390 L 357.137 326.500 363.895 319.500 C 387.556 294.990, 405.062 261.867, 412.084 228.319 C 416.263 208.351, 416.206 181.724, 411.938 160.620 C 406.078 131.638, 389.751 96.933, 372.130 76 C 342.984 41.376, 301.543 20.526, 253 16.064 C 240.210 14.888, 234.780 14.893, 221.313 16.094 M 242.500 71.101 C 218.201 72.926, 199.782 85.470, 187.920 108.270 C 185.646 112.641, 181.394 123.524, 178.471 132.453 C 175.548 141.382, 172.221 150.671, 171.078 153.094 C 169.934 155.517, 164.240 162.675, 158.424 169 C 134.047 195.510, 124.672 212.438, 123.346 232.340 C 121.720 256.738, 136.916 282.962, 158.594 293.172 C 169.530 298.323, 176.949 299.294, 199.772 298.560 C 219.115 297.938, 220.512 298.022, 230.272 300.384 C 251.301 305.472, 261.675 304.819, 276.500 297.472 C 296.824 287.400, 316.306 264.900, 326.572 239.645 C 348.244 186.327, 338.572 123.957, 303.551 91.197 C 287.194 75.895, 267.031 69.258, 242.500 71.101 M 232.131 140.541 C 208.517 145.665, 190 167.208, 190 189.556 C 190 198.423, 191.614 205.278, 195.755 214 C 204.266 231.929, 222.876 243, 244.500 243 C 259.345 243, 270.390 238.606, 280.024 228.868 C 290.131 218.652, 295.341 205.642, 295.232 190.893 C 295.052 166.466, 277.782 145.615, 253.500 140.507 C 245.015 138.722, 240.479 138.730, 232.131 140.541 M 235.132 151.078 C 219.292 154.191, 203.901 171.674, 200.864 190.002 C 198.472 204.442, 206.114 214.170, 217.050 210.606 C 221.328 209.212, 223.964 204.705, 227.937 191.990 C 231.317 181.175, 233.660 178.308, 243.500 172.946 C 252.651 167.960, 255 165.415, 255 160.487 C 255 155.528, 252.463 152.727, 246.500 151.101 C 242 149.875, 241.260 149.873, 235.132 151.078 M 402.700 442.750 C 404.451 447.561, 418.138 464.783, 424.250 469.865 L 427 472.152 427 468.226 C 427 465.413, 426.103 463.052, 423.838 459.900 C 419.363 453.674, 412.351 445.972, 408.712 443.287 C 404.919 440.489, 401.775 440.208, 402.700 442.750" stroke="none" fill="#4d4d4d" fill-rule="evenodd"/></svg>